<svg width="13" height="11" viewBox="0 0 13 11" fill="none" xmlns="http://www.w3.org/2000/svg">
<path d="M6.44016 0.472311C5.16934 0.469462 3.92599 0.75612 2.86753 1.29599C1.80907 1.83587 0.983102 2.60467 0.494204 3.50508C0.0053054 4.40549 -0.124539 5.397 0.12111 6.35408C0.366759 7.31117 0.976854 8.19078 1.87415 8.88156C2.77145 9.57234 3.9156 10.0432 5.16174 10.2346C6.40788 10.4259 7.69997 10.3292 8.87442 9.95652C10.0489 9.58388 11.0529 8.95213 11.7593 8.14125C12.4657 7.33036 12.8428 6.37682 12.8428 5.40134C12.8445 4.7549 12.6801 4.11456 12.3591 3.51691C12.0382 2.91927 11.5669 2.37603 10.9723 1.91827C10.3777 1.4605 9.67137 1.09718 8.89371 0.849074C8.11606 0.600968 7.28232 0.472941 6.44016 0.472311V0.472311ZM12.0675 5.40134C12.0675 6.25565 11.7375 7.09078 11.1191 7.80112C10.5008 8.51146 9.62191 9.0651 8.59365 9.39203C7.56539 9.71896 6.43392 9.8045 5.34233 9.63783C4.25073 9.47116 3.24804 9.05977 2.46104 8.45568C1.67405 7.85159 1.1381 7.08193 0.920966 6.24403C0.703835 5.40613 0.815274 4.53762 1.24119 3.74834C1.66711 2.95905 2.38838 2.28444 3.31379 1.80981C4.2392 1.33517 5.32718 1.08184 6.44016 1.08184C7.93262 1.08184 9.36395 1.53693 10.4193 2.34699C11.4746 3.15705 12.0675 4.25573 12.0675 5.40134V5.40134Z" fill="#B1B1B1"/>
<path d="M4.43926 4.94547C4.63324 4.94924 4.82423 4.90823 4.9875 4.82774C5.15077 4.74725 5.27881 4.63099 5.35503 4.49402C5.43125 4.35704 5.45215 4.20566 5.41503 4.05947C5.3779 3.91327 5.28446 3.779 5.14679 3.67403C5.00913 3.56906 4.83358 3.49823 4.64288 3.4707C4.45218 3.44317 4.25511 3.46022 4.07717 3.51964C3.89924 3.57906 3.74863 3.6781 3.64486 3.80396C3.54109 3.92982 3.48893 4.07669 3.49512 4.22556C3.5045 4.41502 3.60717 4.59469 3.7824 4.72831C3.95764 4.86192 4.19239 4.93953 4.43926 4.94547V4.94547Z" fill="#B1B1B1"/>
<path d="M8.59112 4.94539C8.72451 4.95363 8.85869 4.94058 8.98518 4.90706C9.11168 4.87353 9.22777 4.82026 9.32612 4.7506C9.42447 4.68094 9.50296 4.5964 9.55665 4.5023C9.61033 4.40821 9.63805 4.3066 9.63805 4.20387C9.63805 4.10115 9.61033 3.99954 9.55665 3.90544C9.50296 3.81135 9.42447 3.72681 9.32612 3.65715C9.22777 3.58749 9.11168 3.53422 8.98518 3.50069C8.85869 3.46717 8.72451 3.45412 8.59112 3.46236C8.46333 3.46357 8.33714 3.48442 8.22002 3.52368C8.1029 3.56294 7.99722 3.61982 7.90921 3.69095C7.8212 3.76208 7.75265 3.84603 7.70761 3.93784C7.66258 4.02964 7.64196 4.12745 7.64698 4.22547C7.64863 4.41685 7.74883 4.59995 7.92571 4.73482C8.10259 4.8697 8.3418 4.94539 8.59112 4.94539V4.94539Z" fill="#B1B1B1"/>
<path d="M6.55908 7.48906C5.90587 7.47903 5.26516 7.34973 4.68998 7.11187C4.1148 6.87401 3.62169 6.53443 3.25146 6.12122C3.47415 6.66646 3.9133 7.14464 4.50748 7.48886C5.10167 7.83308 5.82117 8.02613 6.56533 8.04099C7.31483 8.03978 8.04359 7.85201 8.64223 7.50586C9.24088 7.1597 9.67712 6.67385 9.88546 6.12122C9.52569 6.54561 9.03224 6.89346 8.45078 7.13256C7.86933 7.37166 7.21868 7.49428 6.55908 7.48906V7.48906Z" fill="#B1B1B1"/>
</svg>
