<svg width="8" height="4" viewBox="0 0 8 4" fill="none" xmlns="http://www.w3.org/2000/svg">
<path d="M5.8386 0.115459L3.62012 1.94495L4.01946 2.27426L6.23794 0.444777L5.8386 0.115459Z" fill="#6000FE"/>
<path d="M2.60397 3.34464C2.52925 3.34464 2.45714 3.32028 2.40414 3.27658L0.608643 1.79591L1.00788 1.46667L2.60397 2.7829L2.90243 2.53678L3.30167 2.86602L2.80338 3.27693C2.75038 3.32028 2.67869 3.34464 2.60397 3.34464Z" fill="#6000FE"/>
<path d="M4.33306 3.47705C4.25901 3.47705 4.18753 3.45303 4.135 3.40992L2.35547 1.94947L2.75116 1.62473L4.33306 2.92298L7.5395 0.291504L7.93519 0.616243L4.53069 3.41027C4.4786 3.45303 4.40755 3.47705 4.33306 3.47705Z" fill="#6000FE"/>
</svg>
