<svg width="13" height="11" viewBox="0 0 13 11" fill="none" xmlns="http://www.w3.org/2000/svg">
<path d="M6.44016 0.472311C5.16934 0.469462 3.92599 0.75612 2.86753 1.29599C1.80907 1.83587 0.983102 2.60467 0.494204 3.50508C0.0053054 4.40549 -0.124539 5.397 0.12111 6.35408C0.366759 7.31117 0.976854 8.19078 1.87415 8.88156C2.77145 9.57234 3.9156 10.0432 5.16174 10.2346C6.40788 10.4259 7.69997 10.3292 8.87442 9.95652C10.0489 9.58388 11.0529 8.95213 11.7593 8.14125C12.4657 7.33036 12.8428 6.37682 12.8428 5.40134C12.8445 4.7549 12.6801 4.11456 12.3591 3.51691C12.0382 2.91927 11.5669 2.37603 10.9723 1.91827C10.3777 1.4605 9.67137 1.09718 8.89371 0.849074C8.11606 0.600968 7.28232 0.472941 6.44016 0.472311V0.472311ZM12.0675 5.40134C12.0675 6.25565 11.7375 7.09078 11.1191 7.80112C10.5008 8.51146 9.62191 9.0651 8.59365 9.39203C7.56539 9.71896 6.43392 9.8045 5.34233 9.63783C4.25073 9.47116 3.24804 9.05977 2.46104 8.45568C1.67405 7.85159 1.1381 7.08193 0.920966 6.24403C0.703835 5.40613 0.815274 4.53762 1.24119 3.74834C1.66711 2.95905 2.38838 2.28444 3.31379 1.80981C4.2392 1.33517 5.32718 1.08184 6.44016 1.08184C7.93262 1.08184 9.36395 1.53693 10.4193 2.34699C11.4746 3.15705 12.0675 4.25573 12.0675 5.40134V5.40134Z" fill="#B1B1B1"/>
</svg>
