<svg width="3" height="2" viewBox="0 0 3 2" fill="none" xmlns="http://www.w3.org/2000/svg">
<path d="M1.59112 1.94539C1.72451 1.95363 1.85869 1.94058 1.98518 1.90706C2.11168 1.87353 2.22777 1.82026 2.32612 1.7506C2.42447 1.68094 2.50296 1.5964 2.55665 1.5023C2.61033 1.40821 2.63805 1.3066 2.63805 1.20387C2.63805 1.10115 2.61033 0.99954 2.55665 0.905444C2.50296 0.811349 2.42447 0.726807 2.32612 0.657147C2.22777 0.587486 2.11168 0.534215 1.98518 0.500691C1.85869 0.467167 1.72451 0.454116 1.59112 0.462361C1.46333 0.463567 1.33714 0.484416 1.22002 0.523677C1.1029 0.562938 0.997217 0.619815 0.909209 0.690949C0.8212 0.762083 0.752653 0.846031 0.707614 0.937838C0.662575 1.02964 0.641957 1.12745 0.646979 1.22547C0.64863 1.41685 0.74883 1.59995 0.925712 1.73482C1.10259 1.8697 1.3418 1.94539 1.59112 1.94539V1.94539Z" fill="#B1B1B1"/>
</svg>
