<svg width="8" height="12" viewBox="0 0 8 12" fill="none" xmlns="http://www.w3.org/2000/svg">
<path d="M6.08626 3.02569V8.89849C6.08626 10.0271 4.93948 10.9412 3.52362 10.9412C2.10777 10.9412 0.960988 10.0271 0.960988 8.89849V2.51501C0.960988 1.81027 1.67853 1.23831 2.56263 1.23831C3.44674 1.23831 4.16428 1.81027 4.16428 2.51501V7.87714C4.16428 8.15801 3.87598 8.38782 3.52362 8.38782C3.17126 8.38782 2.88296 8.15801 2.88296 7.87714V3.02569H1.92198V7.87714C1.92198 8.58187 2.63951 9.15383 3.52362 9.15383C4.40773 9.15383 5.12527 8.58187 5.12527 7.87714V2.51501C5.12527 1.38641 3.97849 0.47229 2.56263 0.47229C1.14678 0.47229 0 1.38641 0 2.51501V8.89849C0 10.451 1.57602 11.7072 3.52362 11.7072C5.47122 11.7072 7.04724 10.451 7.04724 8.89849V3.02569H6.08626Z" fill="#B1B1B1"/>
</svg>
