<svg width="3" height="2" viewBox="0 0 3 2" fill="none" xmlns="http://www.w3.org/2000/svg">
<path d="M1.43926 1.94547C1.63324 1.94924 1.82423 1.90823 1.9875 1.82774C2.15077 1.74725 2.27881 1.63099 2.35503 1.49402C2.43125 1.35704 2.45215 1.20566 2.41503 1.05947C2.3779 0.913273 2.28446 0.778999 2.14679 0.674029C2.00913 0.569059 1.83358 0.498225 1.64288 0.4707C1.45218 0.443174 1.25511 0.460223 1.07717 0.519639C0.899237 0.579056 0.748635 0.678104 0.644862 0.803961C0.54109 0.929818 0.488926 1.07669 0.495123 1.22556C0.504502 1.41502 0.607171 1.59469 0.782404 1.72831C0.957638 1.86192 1.19239 1.93953 1.43926 1.94547V1.94547Z" fill="#B1B1B1"/>
</svg>
