<svg width="15" height="11" viewBox="0 0 15 11" fill="none" xmlns="http://www.w3.org/2000/svg">
<path d="M14.2836 4.8294L14.2787 4.82771L1.25458 0.575108C1.14503 0.539013 1.02583 0.524857 0.907634 0.533906C0.789436 0.542955 0.675931 0.574928 0.577271 0.626963C0.473035 0.680731 0.387415 0.754057 0.328114 0.840342C0.268812 0.926626 0.237691 1.02316 0.237549 1.12127V3.84103C0.237607 3.97514 0.297095 4.10504 0.405759 4.20833C0.514423 4.31162 0.665456 4.38184 0.832826 4.40687L7.9362 5.44085C7.96411 5.44502 7.9893 5.45673 8.00742 5.47395C8.02554 5.49117 8.03546 5.51284 8.03546 5.5352C8.03546 5.55757 8.02554 5.57923 8.00742 5.59646C7.9893 5.61368 7.96411 5.62538 7.9362 5.62955L0.833131 6.66353C0.665808 6.6885 0.514783 6.75863 0.406071 6.86182C0.297358 6.96502 0.237762 7.09483 0.237549 7.2289V9.94914C0.237468 10.0428 0.266933 10.135 0.323299 10.2175C0.379666 10.3001 0.46117 10.3702 0.560499 10.4218C0.679981 10.4843 0.820202 10.5177 0.963653 10.5179C1.06338 10.5178 1.16208 10.502 1.25397 10.4715L14.2778 6.24317L14.2836 6.24101C14.4589 6.1817 14.6083 6.08323 14.7132 5.95778C14.8182 5.83234 14.8741 5.68542 14.8741 5.5352C14.8741 5.38499 14.8182 5.23807 14.7132 5.11262C14.6083 4.98718 14.4589 4.88871 14.2836 4.8294V4.8294Z" fill="#6000FE"/>
</svg>
